<svg id="svg" version="1.1" xmlns="http://www.w3.org/2000/svg" xmlns:xlink="http://www.w3.org/1999/xlink" width="400" height="408.9068825910931" viewBox="0, 0, 400,408.9068825910931"><g id="svgg"><path id="path0" d="M62.100 0.287 C 62.705 0.378,63.695 0.378,64.300 0.287 C 64.905 0.195,64.410 0.120,63.200 0.120 C 61.990 0.120,61.495 0.195,62.100 0.287 M329.907 0.290 C 330.626 0.379,331.706 0.377,332.307 0.286 C 332.908 0.195,332.320 0.122,331.000 0.124 C 329.680 0.126,329.188 0.201,329.907 0.290 M57.200 0.800 C 57.200 1.020,57.830 1.200,58.600 1.200 C 59.370 1.200,60.000 1.020,60.000 0.800 C 60.000 0.580,59.370 0.400,58.600 0.400 C 57.830 0.400,57.200 0.580,57.200 0.800 M334.400 0.800 C 334.400 1.020,335.041 1.200,335.824 1.200 C 336.671 1.200,337.147 1.038,337.000 0.800 C 336.864 0.580,336.223 0.400,335.576 0.400 C 334.929 0.400,334.400 0.580,334.400 0.800 M54.000 1.600 C 54.000 1.820,54.540 2.000,55.200 2.000 C 55.860 2.000,56.400 1.820,56.400 1.600 C 56.400 1.380,55.860 1.200,55.200 1.200 C 54.540 1.200,54.000 1.380,54.000 1.600 M338.000 1.600 C 338.000 1.820,338.540 2.000,339.200 2.000 C 339.860 2.000,340.400 1.820,340.400 1.600 C 340.400 1.380,339.860 1.200,339.200 1.200 C 338.540 1.200,338.000 1.380,338.000 1.600 M51.800 2.400 C 51.664 2.620,51.923 2.800,52.376 2.800 C 52.829 2.800,53.200 2.620,53.200 2.400 C 53.200 2.180,52.941 2.000,52.624 2.000 C 52.307 2.000,51.936 2.180,51.800 2.400 M340.800 2.400 C 340.800 2.620,341.250 2.800,341.800 2.800 C 342.350 2.800,342.800 2.620,342.800 2.400 C 342.800 2.180,342.350 2.000,341.800 2.000 C 341.250 2.000,340.800 2.180,340.800 2.400 M49.200 3.200 C 49.200 3.420,49.560 3.600,50.000 3.600 C 50.440 3.600,50.800 3.420,50.800 3.200 C 50.800 2.980,50.440 2.800,50.000 2.800 C 49.560 2.800,49.200 2.980,49.200 3.200 M343.600 3.200 C 343.600 3.420,343.960 3.600,344.400 3.600 C 344.840 3.600,345.200 3.420,345.200 3.200 C 345.200 2.980,344.840 2.800,344.400 2.800 C 343.960 2.800,343.600 2.980,343.600 3.200 M46.800 4.000 C 46.800 4.220,47.160 4.400,47.600 4.400 C 48.040 4.400,48.400 4.220,48.400 4.000 C 48.400 3.780,48.040 3.600,47.600 3.600 C 47.160 3.600,46.800 3.780,46.800 4.000 M45.000 4.800 C 44.864 5.020,45.134 5.200,45.600 5.200 C 46.066 5.200,46.336 5.020,46.200 4.800 C 46.064 4.580,45.794 4.400,45.600 4.400 C 45.406 4.400,45.136 4.580,45.000 4.800 M41.098 6.650 C 40.494 6.967,40.000 7.108,40.000 6.964 C 40.000 6.820,39.730 6.926,39.400 7.200 C 38.300 8.113,38.782 8.396,40.139 7.634 C 40.876 7.221,41.821 6.814,42.239 6.732 C 42.658 6.649,42.819 6.467,42.598 6.328 C 42.378 6.188,41.703 6.333,41.098 6.650 M35.060 9.788 C 34.936 10.112,34.377 10.491,33.817 10.631 C 33.258 10.772,32.800 11.137,32.800 11.443 C 32.800 12.140,33.454 12.169,33.880 11.492 C 34.056 11.212,34.695 10.766,35.300 10.500 C 36.458 9.992,36.789 9.200,35.843 9.200 C 35.536 9.200,35.184 9.465,35.060 9.788 M30.792 12.610 C 29.984 13.583,30.657 13.764,31.649 12.840 C 32.342 12.195,32.406 12.000,31.924 12.000 C 31.580 12.000,31.070 12.274,30.792 12.610 M363.200 12.825 C 363.200 13.278,364.177 14.400,364.571 14.400 C 365.126 14.400,364.726 13.347,364.000 12.893 C 363.469 12.561,363.200 12.538,363.200 12.825 M28.744 13.966 C 28.225 14.387,27.934 14.865,28.097 15.030 C 28.261 15.194,28.756 14.912,29.197 14.403 C 30.448 12.961,30.236 12.757,28.744 13.966 M27.200 15.320 C 27.200 15.694,27.009 16.000,26.776 16.000 C 26.543 16.000,26.465 16.181,26.602 16.403 C 26.755 16.651,27.093 16.564,27.480 16.177 C 27.949 15.708,27.993 15.433,27.654 15.094 C 27.315 14.755,27.200 14.812,27.200 15.320 M366.400 15.159 C 366.400 15.747,368.368 17.765,368.659 17.475 C 368.774 17.359,368.313 16.683,367.634 15.973 C 366.955 15.263,366.400 14.896,366.400 15.159 M20.464 21.462 C 18.410 23.552,16.821 25.354,16.933 25.467 C 17.135 25.669,24.800 18.204,24.800 17.805 C 24.800 17.215,23.862 18.006,20.464 21.462 M371.200 19.360 C 371.200 19.755,375.634 24.100,375.833 23.900 C 375.930 23.804,375.232 22.932,374.282 21.962 C 372.254 19.891,371.200 19.001,371.200 19.360 M376.267 25.067 C 376.149 25.184,376.683 25.910,377.453 26.680 C 378.223 27.450,378.949 27.984,379.067 27.867 C 379.184 27.749,378.650 27.023,377.880 26.253 C 377.110 25.483,376.384 24.949,376.267 25.067 M14.839 27.810 C 14.090 28.580,13.583 29.316,13.712 29.445 C 13.938 29.672,16.800 27.047,16.800 26.613 C 16.800 26.087,16.095 26.516,14.839 27.810 M380.000 29.817 C 380.000 29.936,380.360 30.420,380.800 30.892 C 381.256 31.381,381.600 31.534,381.600 31.247 C 381.600 30.970,381.343 30.486,381.029 30.171 C 380.442 29.585,380.000 29.433,380.000 29.817 M12.276 30.974 C 11.814 31.324,11.707 31.619,11.979 31.787 C 12.214 31.932,12.675 31.782,13.003 31.454 C 14.096 30.361,13.555 30.004,12.276 30.974 M381.600 32.400 C 381.600 32.620,381.780 32.800,382.000 32.800 C 382.220 32.800,382.400 33.070,382.400 33.400 C 382.400 33.730,382.670 34.000,383.000 34.000 C 383.828 34.000,383.751 33.507,382.795 32.689 C 381.874 31.900,381.600 31.834,381.600 32.400 M10.860 33.180 C 10.948 33.444,11.151 33.647,11.310 33.630 C 11.788 33.581,11.696 33.032,11.180 32.860 C 10.916 32.772,10.772 32.916,10.860 33.180 M10.000 34.800 C 9.255 35.628,9.067 36.400,9.610 36.400 C 9.977 36.400,10.983 34.401,10.711 34.211 C 10.650 34.168,10.330 34.433,10.000 34.800 M383.200 34.800 C 383.200 35.020,383.380 35.200,383.600 35.200 C 383.820 35.200,384.000 35.470,384.000 35.800 C 384.000 36.130,384.270 36.400,384.600 36.400 C 385.409 36.400,385.356 35.865,384.469 35.062 C 383.636 34.308,383.200 34.218,383.200 34.800 M7.902 38.277 C 7.407 39.114,7.026 39.890,7.054 40.000 C 7.082 40.110,6.857 40.555,6.553 40.989 C 5.900 41.921,5.848 42.400,6.400 42.400 C 6.620 42.400,6.800 42.029,6.800 41.576 C 6.800 41.123,6.980 40.864,7.200 41.000 C 7.420 41.136,7.600 40.987,7.600 40.669 C 7.600 39.906,8.624 37.956,9.216 37.590 C 9.554 37.381,9.562 37.223,9.243 37.027 C 8.986 36.867,8.425 37.390,7.902 38.277 M384.860 37.180 C 385.032 37.696,385.581 37.788,385.630 37.310 C 385.647 37.151,385.444 36.948,385.180 36.860 C 384.916 36.772,384.772 36.916,384.860 37.180 M385.839 38.738 C 385.700 38.961,385.782 39.265,386.020 39.412 C 386.635 39.793,387.032 39.272,386.518 38.758 C 386.231 38.471,386.007 38.464,385.839 38.738 M387.439 41.938 C 387.300 42.161,387.382 42.465,387.620 42.612 C 388.235 42.993,388.632 42.472,388.118 41.958 C 387.831 41.671,387.607 41.664,387.439 41.938 M5.479 43.357 C 5.315 43.774,5.275 44.209,5.391 44.324 C 5.755 44.689,6.076 44.091,5.924 43.331 C 5.783 42.635,5.762 42.636,5.479 43.357 M388.412 44.180 C 388.403 45.041,388.520 45.240,388.841 44.919 C 389.158 44.602,389.161 44.268,388.854 43.739 C 388.477 43.091,388.423 43.146,388.412 44.180 M4.400 45.376 C 4.400 45.693,4.580 46.064,4.800 46.200 C 5.020 46.336,5.200 46.077,5.200 45.624 C 5.200 45.171,5.020 44.800,4.800 44.800 C 4.580 44.800,4.400 45.059,4.400 45.376 M3.849 47.130 C 3.672 47.642,3.633 48.167,3.763 48.297 C 4.178 48.711,4.470 48.100,4.318 47.134 L 4.171 46.200 3.849 47.130 M390.000 48.176 C 390.000 48.739,390.180 49.200,390.400 49.200 C 390.620 49.200,390.800 48.851,390.800 48.424 C 390.800 47.997,390.620 47.536,390.400 47.400 C 390.173 47.260,390.000 47.596,390.000 48.176 M3.067 49.067 C 2.652 49.482,2.753 50.800,3.200 50.800 C 3.420 50.800,3.600 50.350,3.600 49.800 C 3.600 48.753,3.508 48.626,3.067 49.067 M390.800 50.824 C 390.800 51.277,390.980 51.536,391.200 51.400 C 391.420 51.264,391.600 50.893,391.600 50.576 C 391.600 50.259,391.420 50.000,391.200 50.000 C 390.980 50.000,390.800 50.371,390.800 50.824 M2.000 52.400 C 2.000 52.840,2.180 53.200,2.400 53.200 C 2.620 53.200,2.800 52.840,2.800 52.400 C 2.800 51.960,2.620 51.600,2.400 51.600 C 2.180 51.600,2.000 51.960,2.000 52.400 M391.600 53.176 C 391.600 53.629,391.780 54.000,392.000 54.000 C 392.220 54.000,392.400 53.741,392.400 53.424 C 392.400 53.107,392.220 52.736,392.000 52.600 C 391.780 52.464,391.600 52.723,391.600 53.176 M1.200 55.200 C 1.200 55.860,1.380 56.400,1.600 56.400 C 1.820 56.400,2.000 55.860,2.000 55.200 C 2.000 54.540,1.820 54.000,1.600 54.000 C 1.380 54.000,1.200 54.540,1.200 55.200 M392.400 56.624 C 392.400 57.204,392.573 57.540,392.800 57.400 C 393.020 57.264,393.200 56.803,393.200 56.376 C 393.200 55.949,393.020 55.600,392.800 55.600 C 392.580 55.600,392.400 56.061,392.400 56.624 M0.400 59.000 C 0.400 59.550,0.580 60.000,0.800 60.000 C 1.020 60.000,1.200 59.550,1.200 59.000 C 1.200 58.450,1.020 58.000,0.800 58.000 C 0.580 58.000,0.400 58.450,0.400 59.000 M393.200 60.000 C 393.200 60.660,393.380 61.200,393.600 61.200 C 393.820 61.200,394.000 60.660,394.000 60.000 C 394.000 59.340,393.820 58.800,393.600 58.800 C 393.380 58.800,393.200 59.340,393.200 60.000 M0.120 63.200 C 0.120 64.410,0.195 64.905,0.287 64.300 C 0.378 63.695,0.378 62.705,0.287 62.100 C 0.195 61.495,0.120 61.990,0.120 63.200 M394.000 65.600 C 394.000 67.130,394.150 67.955,394.400 67.800 C 394.620 67.664,394.800 66.674,394.800 65.600 C 394.800 64.526,394.620 63.536,394.400 63.400 C 394.150 63.245,394.000 64.070,394.000 65.600 M62.527 65.446 C 62.188 66.329,62.781 97.236,63.149 97.895 C 63.464 98.458,64.306 97.630,74.603 86.612 C 77.681 83.319,81.536 79.224,83.169 77.512 L 86.139 74.400 201.669 74.400 C 285.425 74.400,317.200 74.521,317.200 74.840 C 317.200 75.082,316.605 75.847,315.878 76.540 C 315.151 77.233,312.586 79.697,310.178 82.016 C 307.770 84.335,301.480 90.359,296.200 95.403 C 290.920 100.446,284.031 107.048,280.892 110.073 L 275.183 115.573 277.184 117.782 C 278.284 118.997,279.644 120.719,280.205 121.608 C 280.924 122.746,281.391 123.133,281.784 122.913 C 282.358 122.591,294.302 111.324,298.633 107.019 C 299.971 105.688,304.012 101.810,307.612 98.400 C 311.213 94.990,316.328 90.116,318.979 87.568 C 321.631 85.021,325.578 81.232,327.752 79.148 L 331.703 75.359 331.904 71.521 C 332.014 69.410,331.983 67.035,331.834 66.242 L 331.564 64.800 197.169 64.800 C 73.835 64.800,62.754 64.853,62.527 65.446 M235.467 153.482 C 233.450 155.397,230.360 158.349,228.600 160.043 C 226.840 161.737,223.369 165.076,220.887 167.462 L 216.374 171.800 216.487 178.668 L 216.600 185.537 220.619 181.668 C 222.830 179.541,228.406 174.200,233.011 169.800 C 237.616 165.400,243.368 159.880,245.792 157.534 C 248.216 155.187,250.696 152.878,251.303 152.403 C 254.204 150.127,253.934 150.000,246.181 150.000 L 239.134 150.000 235.467 153.482 M176.183 210.142 C 175.733 210.614,171.683 214.508,167.183 218.794 C 158.438 227.124,151.540 233.733,144.847 240.192 C 142.563 242.396,140.125 244.740,139.429 245.400 C 138.734 246.060,134.305 250.290,129.588 254.800 C 124.870 259.310,118.848 265.065,116.205 267.589 C 113.562 270.113,109.423 274.073,107.007 276.389 C 104.591 278.705,100.910 282.220,98.828 284.200 C 96.746 286.180,94.393 288.430,93.598 289.200 C 86.646 295.937,67.340 314.393,64.859 316.673 L 62.603 318.745 62.602 324.073 L 62.600 329.400 196.400 329.509 C 269.990 329.569,330.605 329.521,331.100 329.402 C 331.967 329.193,332.000 329.021,331.997 324.692 C 331.996 322.222,332.169 317.950,332.384 315.200 C 333.467 301.293,333.694 297.561,333.474 297.341 C 333.158 297.025,330.060 299.668,321.417 307.625 C 320.088 308.849,318.190 310.578,317.200 311.468 C 316.210 312.357,313.690 314.641,311.600 316.543 L 307.801 320.000 192.524 320.000 C 129.122 320.000,77.154 319.849,77.039 319.664 C 76.839 319.340,81.760 314.391,91.000 305.626 C 93.420 303.330,97.380 299.550,99.800 297.225 C 104.966 292.263,119.787 278.087,126.380 271.800 C 128.919 269.380,133.251 265.240,136.008 262.600 C 141.392 257.445,156.222 243.259,163.396 236.402 C 165.814 234.091,170.089 229.959,172.896 227.220 L 178.000 222.240 178.000 215.720 C 178.000 208.784,177.867 208.375,176.183 210.142 M394.006 328.100 C 394.011 329.603,394.122 330.030,394.400 329.600 C 394.912 328.808,394.912 326.000,394.400 326.000 C 394.180 326.000,394.003 326.945,394.006 328.100 M0.114 330.200 C 0.117 331.300,0.195 331.703,0.287 331.095 C 0.379 330.486,0.377 329.586,0.282 329.095 C 0.187 328.603,0.111 329.100,0.114 330.200 M393.200 333.624 C 393.200 334.077,393.380 334.336,393.600 334.200 C 393.820 334.064,394.000 333.693,394.000 333.376 C 394.000 333.059,393.820 332.800,393.600 332.800 C 393.380 332.800,393.200 333.171,393.200 333.624 M0.400 334.376 C 0.400 334.803,0.580 335.264,0.800 335.400 C 1.027 335.540,1.200 335.204,1.200 334.624 C 1.200 334.061,1.020 333.600,0.800 333.600 C 0.580 333.600,0.400 333.949,0.400 334.376 M392.400 337.200 C 392.400 337.640,392.580 338.000,392.800 338.000 C 393.020 338.000,393.200 337.640,393.200 337.200 C 393.200 336.760,393.020 336.400,392.800 336.400 C 392.580 336.400,392.400 336.760,392.400 337.200 M1.200 338.376 C 1.200 338.803,1.380 339.264,1.600 339.400 C 1.827 339.540,2.000 339.204,2.000 338.624 C 2.000 338.061,1.820 337.600,1.600 337.600 C 1.380 337.600,1.200 337.949,1.200 338.376 M391.600 340.200 C 391.600 340.530,391.780 340.800,392.000 340.800 C 392.220 340.800,392.400 340.530,392.400 340.200 C 392.400 339.870,392.220 339.600,392.000 339.600 C 391.780 339.600,391.600 339.870,391.600 340.200 M2.000 340.976 C 2.000 341.293,2.180 341.664,2.400 341.800 C 2.620 341.936,2.800 341.677,2.800 341.224 C 2.800 340.771,2.620 340.400,2.400 340.400 C 2.180 340.400,2.000 340.659,2.000 340.976 M2.800 343.800 C 2.800 344.130,2.980 344.400,3.200 344.400 C 3.420 344.400,3.600 344.130,3.600 343.800 C 3.600 343.470,3.420 343.200,3.200 343.200 C 2.980 343.200,2.800 343.470,2.800 343.800 M13.588 364.378 C 14.079 365.295,14.757 365.776,15.091 365.443 C 15.221 365.312,14.912 364.844,14.403 364.403 C 13.244 363.397,13.060 363.392,13.588 364.378 M16.451 367.890 C 17.639 369.384,19.665 371.269,19.865 371.068 C 19.982 370.952,19.255 370.034,18.249 369.028 C 16.442 367.221,15.388 366.554,16.451 367.890 M22.851 374.290 C 24.039 375.784,26.065 377.669,26.265 377.468 C 26.382 377.352,25.655 376.434,24.649 375.428 C 22.842 373.621,21.788 372.954,22.851 374.290 M28.000 378.629 C 28.000 379.053,29.236 380.097,29.467 379.867 C 29.592 379.741,29.417 379.360,29.076 379.019 C 28.441 378.384,28.000 378.224,28.000 378.629 M36.000 384.400 C 36.000 384.620,36.270 384.800,36.600 384.800 C 36.930 384.800,37.200 384.620,37.200 384.400 C 37.200 384.180,36.930 384.000,36.600 384.000 C 36.270 384.000,36.000 384.180,36.000 384.400 M44.200 388.400 C 44.336 388.620,44.707 388.800,45.024 388.800 C 45.341 388.800,45.600 388.620,45.600 388.400 C 45.600 388.180,45.229 388.000,44.776 388.000 C 44.323 388.000,44.064 388.180,44.200 388.400 M46.400 389.200 C 46.400 389.420,46.670 389.600,47.000 389.600 C 47.330 389.600,47.600 389.420,47.600 389.200 C 47.600 388.980,47.330 388.800,47.000 388.800 C 46.670 388.800,46.400 388.980,46.400 389.200 M48.400 390.000 C 48.400 390.220,48.760 390.400,49.200 390.400 C 49.640 390.400,50.000 390.220,50.000 390.000 C 50.000 389.780,49.640 389.600,49.200 389.600 C 48.760 389.600,48.400 389.780,48.400 390.000 M50.800 390.800 C 50.800 391.020,51.160 391.200,51.600 391.200 C 52.040 391.200,52.400 391.020,52.400 390.800 C 52.400 390.580,52.040 390.400,51.600 390.400 C 51.160 390.400,50.800 390.580,50.800 390.800 M53.200 391.557 C 53.200 391.914,54.141 392.400,54.833 392.400 C 55.035 392.400,55.200 392.130,55.200 391.800 C 55.200 391.427,54.822 391.200,54.200 391.200 C 53.650 391.200,53.200 391.361,53.200 391.557 M56.800 392.400 C 56.346 392.693,56.522 392.789,57.524 392.794 C 58.305 392.797,58.746 392.636,58.600 392.400 C 58.289 391.897,57.578 391.897,56.800 392.400 M61.000 393.195 C 60.167 393.558,60.275 393.612,62.104 393.746 C 62.718 393.791,63.148 393.643,63.071 393.413 C 62.888 392.862,61.984 392.767,61.000 393.195 M67.600 394.012 C 66.768 394.268,66.735 394.329,67.400 394.370 C 68.597 394.445,326.071 394.482,327.000 394.408 L 327.800 394.344 327.000 393.999 C 326.008 393.572,68.984 393.584,67.600 394.012 " stroke="none" fill="#f7f8f8" fill-rule="evenodd"></path><path id="path1" d="M62.700 0.293 C 61.215 0.372,60.000 0.608,60.000 0.818 C 60.000 1.028,59.190 1.200,58.200 1.200 C 57.210 1.200,56.400 1.380,56.400 1.600 C 56.400 1.820,55.680 2.000,54.800 2.000 C 53.920 2.000,53.200 2.180,53.200 2.400 C 53.200 2.620,52.660 2.800,52.000 2.800 C 51.340 2.800,50.800 2.980,50.800 3.200 C 50.800 3.420,50.260 3.600,49.600 3.600 C 48.940 3.600,48.400 3.780,48.400 4.000 C 48.400 4.220,47.849 4.400,47.176 4.400 C 46.463 4.400,46.056 4.567,46.200 4.800 C 46.340 5.027,46.004 5.200,45.424 5.200 C 44.861 5.200,44.400 5.388,44.400 5.618 C 44.400 5.847,44.175 6.006,43.900 5.970 C 42.883 5.838,42.360 6.011,42.600 6.400 C 42.736 6.620,42.572 6.800,42.236 6.800 C 41.899 6.800,40.989 7.157,40.212 7.593 C 39.435 8.029,38.800 8.197,38.800 7.965 C 38.800 7.733,38.530 7.813,38.200 8.143 C 37.870 8.473,37.600 8.946,37.600 9.195 C 37.600 9.444,37.427 9.540,37.215 9.409 C 37.003 9.278,36.463 9.537,36.015 9.985 C 35.567 10.433,34.949 10.800,34.643 10.800 C 34.336 10.800,33.980 11.074,33.852 11.410 C 33.685 11.843,33.297 11.950,32.509 11.777 C 31.826 11.628,31.589 11.670,31.892 11.886 C 32.422 12.265,31.136 13.694,30.440 13.499 C 30.246 13.445,29.717 13.822,29.265 14.337 C 28.812 14.852,28.255 15.158,28.026 15.016 C 27.769 14.857,27.707 15.015,27.865 15.425 C 28.073 15.968,27.941 16.047,27.161 15.850 C 26.632 15.716,26.425 15.711,26.700 15.837 C 27.412 16.164,27.322 16.822,26.603 16.546 C 26.256 16.413,25.898 16.599,25.748 16.992 C 25.542 17.529,25.420 17.558,25.150 17.134 C 24.893 16.727,24.811 16.770,24.806 17.314 C 24.803 17.707,23.000 19.815,20.800 22.000 C 18.600 24.185,16.800 26.171,16.800 26.415 C 16.800 27.336,15.566 28.184,15.126 27.565 C 14.812 27.123,14.776 27.160,14.961 27.730 C 15.209 28.493,14.395 29.600,13.586 29.600 C 13.321 29.600,13.220 29.876,13.356 30.230 C 13.645 30.984,12.589 32.164,11.969 31.781 C 11.681 31.603,11.576 31.903,11.661 32.655 C 11.746 33.405,11.620 33.765,11.296 33.700 C 11.023 33.645,10.800 33.881,10.800 34.224 C 10.800 34.567,10.622 34.737,10.405 34.603 C 10.171 34.458,10.115 34.635,10.270 35.037 C 10.431 35.458,10.262 35.912,9.825 36.231 C 9.437 36.515,9.239 36.939,9.384 37.173 C 9.529 37.408,9.470 37.600,9.253 37.600 C 8.801 37.600,7.600 39.842,7.600 40.685 C 7.600 40.994,7.420 41.136,7.200 41.000 C 6.980 40.864,6.800 41.123,6.800 41.576 C 6.800 42.029,6.620 42.400,6.400 42.400 C 6.180 42.400,6.000 42.850,6.000 43.400 C 6.000 43.950,5.820 44.400,5.600 44.400 C 5.380 44.400,5.200 44.861,5.200 45.424 C 5.200 46.004,5.027 46.340,4.800 46.200 C 4.567 46.056,4.400 46.463,4.400 47.176 C 4.400 47.849,4.220 48.400,4.000 48.400 C 3.780 48.400,3.600 48.940,3.600 49.600 C 3.600 50.260,3.420 50.800,3.200 50.800 C 2.980 50.800,2.800 51.340,2.800 52.000 C 2.800 52.660,2.620 53.200,2.400 53.200 C 2.180 53.200,2.000 53.920,2.000 54.800 C 2.000 55.680,1.820 56.400,1.600 56.400 C 1.380 56.400,1.200 57.195,1.200 58.167 C 1.200 59.224,0.999 60.000,0.700 60.100 C 0.301 60.233,0.200 87.929,0.200 196.800 C 0.200 305.671,0.301 333.367,0.700 333.500 C 1.010 333.603,1.200 334.416,1.200 335.633 C 1.200 336.715,1.380 337.600,1.600 337.600 C 1.820 337.600,2.000 338.230,2.000 339.000 C 2.000 339.770,2.180 340.400,2.400 340.400 C 2.620 340.400,2.800 341.030,2.800 341.800 C 2.800 342.570,2.980 343.200,3.200 343.200 C 3.420 343.200,3.600 343.751,3.600 344.424 C 3.600 345.137,3.767 345.544,4.000 345.400 C 4.233 345.256,4.400 345.663,4.400 346.376 C 4.400 347.049,4.580 347.600,4.800 347.600 C 5.020 347.600,5.200 348.151,5.200 348.824 C 5.200 349.656,5.350 349.955,5.668 349.758 C 5.981 349.565,6.053 349.685,5.885 350.123 C 5.747 350.483,5.896 351.039,6.217 351.360 C 6.538 351.681,6.800 352.346,6.800 352.838 C 6.800 353.330,6.917 353.616,7.061 353.473 C 7.343 353.191,8.400 354.995,8.400 355.757 C 8.400 356.014,8.760 356.483,9.200 356.800 C 10.073 357.429,10.307 358.203,9.500 357.793 C 9.225 357.653,9.360 357.870,9.800 358.275 C 10.966 359.348,11.929 360.631,11.270 360.235 C 10.835 359.973,10.832 360.062,11.251 360.732 C 11.531 361.181,11.892 361.467,12.052 361.368 C 12.213 361.268,12.458 361.370,12.596 361.593 C 12.734 361.817,12.612 362.005,12.324 362.011 C 12.036 362.017,12.569 362.726,13.508 363.587 C 14.447 364.448,15.167 365.307,15.108 365.496 C 15.049 365.685,16.125 366.946,17.500 368.298 C 18.875 369.650,20.000 371.036,20.000 371.378 C 20.000 371.720,20.300 372.000,20.667 372.000 C 21.033 372.000,21.222 372.111,21.086 372.248 C 20.776 372.557,21.785 373.600,22.394 373.600 C 22.641 373.600,23.904 374.680,25.200 376.000 C 26.496 377.320,27.763 378.400,28.017 378.400 C 28.271 378.400,28.983 378.940,29.600 379.600 C 30.217 380.260,30.969 380.800,31.272 380.800 C 31.575 380.800,32.083 381.160,32.400 381.600 C 32.717 382.040,33.297 382.400,33.688 382.400 C 34.080 382.400,34.400 382.580,34.400 382.800 C 34.400 383.020,34.681 383.200,35.024 383.200 C 35.367 383.200,35.536 383.380,35.400 383.600 C 35.260 383.827,35.596 384.000,36.176 384.000 C 36.739 384.000,37.200 384.180,37.200 384.400 C 37.200 384.620,37.430 384.800,37.712 384.800 C 37.993 384.800,38.483 385.160,38.800 385.600 C 39.117 386.040,39.697 386.400,40.088 386.400 C 40.480 386.400,40.803 386.625,40.806 386.900 C 40.810 387.239,40.949 387.207,41.237 386.800 C 41.556 386.348,41.711 386.324,41.864 386.700 C 41.975 386.975,42.412 387.200,42.833 387.200 C 43.255 387.200,43.600 387.380,43.600 387.600 C 43.600 387.820,44.050 388.000,44.600 388.000 C 45.150 388.000,45.600 388.180,45.600 388.400 C 45.600 388.620,46.050 388.800,46.600 388.800 C 47.150 388.800,47.600 388.980,47.600 389.200 C 47.600 389.420,48.140 389.600,48.800 389.600 C 49.460 389.600,50.000 389.780,50.000 390.000 C 50.000 390.220,50.540 390.400,51.200 390.400 C 51.860 390.400,52.400 390.580,52.400 390.800 C 52.400 391.020,53.030 391.200,53.800 391.200 C 54.827 391.200,55.200 391.374,55.200 391.851 C 55.200 392.385,55.484 392.457,56.776 392.250 C 58.446 391.983,59.446 392.600,57.906 392.947 C 57.408 393.060,58.319 393.096,59.932 393.027 C 61.838 392.946,62.925 393.059,63.037 393.351 C 63.203 393.784,328.670 393.863,329.104 393.430 C 329.197 393.336,327.079 390.636,324.398 387.430 L 319.522 381.600 194.190 381.600 C 107.703 381.600,67.888 381.468,65.729 381.174 C 55.692 379.806,43.575 374.842,36.747 369.300 C 27.789 362.030,22.499 355.535,18.140 346.455 C 15.075 340.071,14.048 336.656,12.418 327.433 C 11.827 324.085,11.834 69.590,12.426 66.224 C 14.418 54.895,16.662 48.876,22.130 40.200 C 30.386 27.098,45.231 16.764,60.400 13.559 C 67.888 11.977,63.304 12.029,197.200 12.021 C 329.400 12.014,327.210 11.991,333.200 13.412 C 333.750 13.543,335.010 13.835,336.000 14.062 C 336.990 14.289,338.160 14.619,338.600 14.797 C 339.040 14.974,340.030 15.336,340.800 15.600 C 345.729 17.292,350.707 19.891,356.450 23.768 C 363.179 28.311,371.106 37.418,374.929 45.000 C 379.326 53.718,380.731 58.591,381.790 68.800 C 382.695 77.526,382.657 316.940,381.749 325.400 C 381.419 328.480,381.149 331.312,381.149 331.693 C 381.149 332.075,382.466 333.932,384.075 335.820 C 385.684 337.709,387.558 339.984,388.239 340.877 C 389.464 342.481,390.794 343.540,390.806 342.920 C 390.809 342.744,390.982 342.868,391.188 343.195 C 391.497 343.683,391.567 343.648,391.576 342.995 C 391.614 340.199,391.694 339.600,392.027 339.600 C 392.232 339.600,392.400 338.880,392.400 338.000 C 392.400 337.120,392.580 336.400,392.800 336.400 C 393.020 336.400,393.200 336.076,393.200 335.680 C 393.200 335.284,393.425 334.718,393.700 334.421 C 394.100 333.990,394.100 333.939,393.700 334.165 C 393.370 334.351,393.200 334.166,393.200 333.624 C 393.200 333.171,393.380 332.800,393.600 332.800 C 393.835 332.800,394.000 331.400,394.000 329.400 C 394.000 327.400,394.165 326.000,394.400 326.000 C 394.666 326.000,394.800 282.659,394.800 196.776 C 394.800 110.729,394.666 67.635,394.400 67.800 C 394.145 67.957,394.000 66.804,394.000 64.624 C 394.000 62.608,393.836 61.200,393.600 61.200 C 393.380 61.200,393.200 60.289,393.200 59.176 C 393.200 57.929,393.047 57.248,392.800 57.400 C 392.556 57.551,392.400 56.937,392.400 55.824 C 392.400 54.821,392.220 54.000,392.000 54.000 C 391.780 54.000,391.600 53.359,391.600 52.576 C 391.600 51.729,391.438 51.253,391.200 51.400 C 390.967 51.544,390.800 51.137,390.800 50.424 C 390.800 49.751,390.620 49.200,390.400 49.200 C 390.180 49.200,390.000 48.660,390.000 48.000 C 390.000 47.340,389.820 46.800,389.600 46.800 C 389.380 46.800,389.200 46.339,389.200 45.776 C 389.200 45.196,389.027 44.860,388.800 45.000 C 388.568 45.143,388.400 44.752,388.400 44.066 C 388.400 43.417,388.159 42.793,387.864 42.680 C 387.527 42.551,387.372 41.978,387.447 41.137 C 387.513 40.402,387.471 40.117,387.353 40.505 C 387.236 40.893,386.981 41.112,386.787 40.992 C 386.593 40.872,386.527 40.533,386.640 40.239 C 386.753 39.944,386.580 39.601,386.254 39.476 C 385.880 39.332,385.743 38.940,385.882 38.407 C 386.034 37.826,385.932 37.602,385.551 37.683 C 385.234 37.750,385.024 37.503,385.056 37.100 C 385.086 36.715,384.861 36.400,384.556 36.400 C 384.250 36.400,384.000 36.130,384.000 35.800 C 384.000 35.470,383.801 35.200,383.557 35.200 C 383.314 35.200,383.218 34.930,383.345 34.600 C 383.485 34.235,383.345 34.000,382.987 34.000 C 382.664 34.000,382.400 33.730,382.400 33.400 C 382.400 33.070,382.220 32.800,382.000 32.800 C 381.780 32.800,381.600 32.564,381.600 32.275 C 381.600 31.987,381.240 31.364,380.800 30.892 C 380.360 30.420,380.000 29.846,380.000 29.617 C 380.000 29.388,379.820 29.200,379.600 29.200 C 379.380 29.200,379.200 29.006,379.200 28.769 C 379.200 28.531,378.525 27.672,377.700 26.859 C 376.875 26.047,376.154 25.156,376.097 24.881 C 375.917 24.011,370.045 18.400,369.306 18.394 C 368.704 18.389,368.688 18.331,369.200 18.000 C 369.681 17.689,369.613 17.611,368.857 17.606 C 368.200 17.602,367.982 17.425,368.137 17.020 C 368.293 16.612,368.167 16.514,367.710 16.690 C 367.230 16.874,367.126 16.770,367.310 16.290 C 367.486 15.833,367.388 15.707,366.980 15.863 C 366.632 15.996,366.400 15.845,366.400 15.486 C 366.400 14.905,365.335 14.199,364.679 14.344 C 364.321 14.422,363.200 13.403,363.200 13.000 C 363.200 12.469,361.990 11.559,361.603 11.798 C 361.381 11.935,361.001 11.924,360.757 11.774 C 360.449 11.583,360.479 11.396,360.857 11.156 C 361.237 10.916,361.069 10.810,360.300 10.806 C 359.636 10.802,359.240 10.602,359.300 10.300 C 359.358 10.011,359.087 9.854,358.660 9.927 C 358.185 10.008,358.022 9.889,358.204 9.594 C 358.393 9.287,358.175 9.179,357.544 9.267 C 356.950 9.351,356.637 9.215,356.700 8.900 C 356.759 8.607,356.387 8.400,355.800 8.400 C 355.250 8.400,354.800 8.220,354.800 8.000 C 354.800 7.780,354.459 7.600,354.043 7.600 C 353.626 7.600,353.183 7.333,353.058 7.007 C 352.928 6.669,352.565 6.515,352.215 6.650 C 351.877 6.779,351.600 6.686,351.600 6.443 C 351.600 6.199,351.240 6.000,350.800 6.000 C 350.360 6.000,350.000 5.820,350.000 5.600 C 350.000 5.380,349.539 5.200,348.976 5.200 C 348.396 5.200,348.060 5.027,348.200 4.800 C 348.344 4.567,347.937 4.400,347.224 4.400 C 346.551 4.400,346.000 4.220,346.000 4.000 C 346.000 3.780,345.460 3.600,344.800 3.600 C 344.140 3.600,343.600 3.420,343.600 3.200 C 343.600 2.980,342.970 2.800,342.200 2.800 C 341.430 2.800,340.800 2.620,340.800 2.400 C 340.800 2.180,340.170 2.000,339.400 2.000 C 338.630 2.000,338.000 1.820,338.000 1.600 C 338.000 1.380,337.205 1.200,336.233 1.200 C 335.176 1.200,334.400 0.999,334.300 0.700 C 334.145 0.234,71.191 -0.160,62.700 0.293 M128.163 112.587 C 121.262 113.840,115.960 118.167,113.488 124.562 C 112.544 127.004,112.351 134.671,113.178 136.869 C 115.116 142.020,118.972 146.236,123.600 148.262 C 124.150 148.503,125.140 148.947,125.800 149.248 C 126.766 149.689,131.954 149.821,152.392 149.923 C 171.452 150.018,177.859 150.168,178.085 150.525 C 178.449 151.096,178.510 207.757,178.147 208.119 C 178.009 208.258,177.929 211.452,177.972 215.216 C 178.029 220.357,177.918 222.221,177.524 222.707 C 177.227 223.073,177.199 223.235,177.458 223.079 C 178.331 222.556,178.400 224.170,178.404 245.333 C 178.409 269.534,178.405 269.500,182.185 274.900 C 186.245 280.699,196.518 283.820,203.000 281.222 C 209.775 278.507,214.088 273.550,215.548 266.800 C 215.901 265.168,216.047 249.781,216.112 207.200 L 216.200 149.800 226.400 149.731 C 237.111 149.659,238.602 149.750,238.168 150.452 C 237.992 150.736,238.189 150.727,238.753 150.425 C 239.286 150.140,242.247 149.955,246.701 149.928 C 257.182 149.865,268.487 149.431,269.400 149.056 C 279.205 145.035,284.296 135.759,281.815 126.437 C 281.397 124.868,281.355 124.058,281.660 123.489 C 281.938 122.968,281.942 122.789,281.669 122.957 C 281.444 123.097,280.661 122.327,279.930 121.246 C 278.275 118.801,275.332 115.600,274.739 115.600 C 274.494 115.600,273.733 115.253,273.047 114.829 C 271.301 113.750,268.686 112.939,265.323 112.433 C 260.841 111.758,131.929 111.904,128.163 112.587 M73.105 394.683 C 73.602 394.779,74.322 394.775,74.705 394.675 C 75.087 394.575,74.680 394.496,73.800 394.501 C 72.920 394.505,72.607 394.587,73.105 394.683 M82.922 394.699 C 85.299 394.770,89.079 394.769,91.322 394.698 C 93.565 394.627,91.620 394.569,87.000 394.569 C 82.380 394.570,80.545 394.628,82.922 394.699 M155.300 394.700 C 179.665 394.757,219.535 394.757,243.900 394.700 C 268.265 394.643,248.330 394.596,199.600 394.596 C 150.870 394.596,130.935 394.643,155.300 394.700 M320.100 394.676 C 320.485 394.776,321.115 394.776,321.500 394.676 C 321.885 394.575,321.570 394.493,320.800 394.493 C 320.030 394.493,319.715 394.575,320.100 394.676 " stroke="none" fill="#24f2e2" fill-rule="evenodd"></path><path id="path2" d="M71.600 12.649 C 71.270 12.737,69.290 12.977,67.200 13.181 C 63.663 13.527,62.373 13.750,58.200 14.734 C 53.697 15.796,47.777 18.319,42.859 21.274 C 41.462 22.113,40.191 22.800,40.035 22.800 C 39.879 22.800,39.402 23.115,38.975 23.500 C 38.549 23.885,37.353 24.830,36.318 25.600 C 30.967 29.581,23.791 38.095,20.134 44.800 C 18.362 48.050,18.136 48.494,17.647 49.700 C 17.401 50.305,17.032 51.205,16.826 51.700 C 14.710 56.797,13.447 62.584,12.789 70.200 C 12.186 77.176,12.505 323.164,13.122 327.600 C 13.526 330.506,13.917 332.459,14.760 335.800 C 14.982 336.680,15.284 337.898,15.430 338.506 C 15.576 339.114,15.854 339.710,16.048 339.830 C 16.241 339.949,16.400 340.380,16.400 340.786 C 16.400 341.506,16.626 342.028,19.092 347.000 C 20.588 350.018,23.604 354.957,24.057 355.133 C 24.246 355.207,24.400 355.477,24.400 355.733 C 24.401 355.990,24.857 356.740,25.415 357.400 C 37.049 371.167,50.212 378.550,66.800 380.612 C 70.697 381.096,90.390 381.185,195.636 381.192 L 319.871 381.200 322.277 383.900 C 323.601 385.385,326.180 388.490,328.010 390.800 C 331.307 394.962,336.141 400.000,336.838 400.000 C 337.037 400.000,337.200 400.231,337.200 400.512 C 337.200 400.794,337.695 401.235,338.300 401.492 C 340.038 402.230,342.958 404.010,343.440 404.626 C 343.681 404.935,343.997 405.070,344.140 404.927 C 344.284 404.783,344.806 404.859,345.301 405.096 C 345.795 405.334,346.526 405.633,346.925 405.761 C 347.324 405.889,347.534 406.183,347.392 406.413 C 347.221 406.689,347.507 406.738,348.229 406.557 C 349.005 406.362,349.458 406.465,349.783 406.909 C 350.067 407.297,350.766 407.510,351.620 407.468 C 352.538 407.423,352.966 407.568,352.900 407.900 C 352.824 408.282,354.290 408.410,359.100 408.441 C 367.347 408.494,368.138 408.435,368.534 407.738 C 368.762 407.336,369.218 407.228,369.983 407.396 C 370.810 407.578,371.165 407.468,371.355 406.972 C 371.548 406.470,371.910 406.362,372.806 406.541 C 373.463 406.673,374.000 406.613,374.000 406.409 C 374.000 406.058,374.878 405.593,377.900 404.343 C 378.615 404.047,379.200 403.669,379.200 403.502 C 379.200 403.336,379.560 403.200,380.000 403.200 C 380.440 403.200,380.800 403.005,380.800 402.767 C 380.800 402.528,381.006 402.402,381.257 402.486 C 381.509 402.570,382.344 402.045,383.113 401.319 C 383.883 400.594,384.649 400.000,384.816 400.000 C 384.984 400.000,386.597 398.515,388.403 396.700 C 390.208 394.885,391.846 393.378,392.043 393.350 C 393.245 393.182,393.329 393.116,392.675 392.858 C 392.000 392.592,392.015 392.501,392.896 391.550 C 393.417 390.988,393.773 390.320,393.688 390.064 C 393.603 389.809,393.695 389.600,393.892 389.600 C 394.089 389.600,394.498 388.970,394.800 388.200 C 395.102 387.430,395.596 386.800,395.898 386.800 C 396.200 386.800,396.330 386.611,396.188 386.380 C 395.878 385.879,397.076 383.200,397.609 383.200 C 397.813 383.200,397.873 382.663,397.741 382.006 C 397.562 381.110,397.670 380.748,398.172 380.555 C 398.674 380.363,398.778 380.012,398.589 379.149 C 398.405 378.310,398.505 377.935,398.960 377.760 C 399.580 377.522,399.692 376.162,399.647 369.400 C 399.599 362.249,399.502 360.829,399.062 360.913 C 398.791 360.964,398.611 360.504,398.628 359.800 C 398.643 359.140,398.392 358.403,398.069 358.163 C 397.705 357.891,397.558 357.329,397.682 356.683 C 397.813 355.996,397.683 355.564,397.299 355.417 C 396.979 355.294,396.814 354.940,396.933 354.630 C 397.052 354.320,396.891 353.967,396.575 353.846 C 396.259 353.724,396.000 353.259,396.000 352.813 C 396.000 352.366,395.820 352.000,395.600 352.000 C 395.380 352.000,395.200 351.640,395.200 351.200 C 395.200 350.760,395.020 350.400,394.800 350.400 C 394.580 350.400,394.400 350.164,394.400 349.875 C 394.400 349.587,394.040 348.964,393.600 348.492 C 393.160 348.020,392.799 347.491,392.798 347.317 C 392.797 347.143,392.300 346.460,391.693 345.800 C 391.086 345.140,389.162 342.890,387.418 340.800 C 385.675 338.710,383.357 335.967,382.268 334.704 L 380.288 332.409 380.640 330.304 C 381.217 326.864,381.102 65.912,380.522 63.000 C 379.701 58.875,379.549 58.223,379.215 57.400 C 379.037 56.960,378.659 55.790,378.376 54.800 C 378.093 53.810,377.712 52.829,377.530 52.620 C 377.349 52.411,377.200 51.945,377.200 51.583 C 377.200 51.222,376.270 49.053,375.133 46.763 C 370.101 36.630,362.419 28.091,353.186 22.372 C 350.140 20.485,348.615 19.666,343.462 17.151 C 342.616 16.738,341.592 16.400,341.186 16.400 C 340.780 16.400,340.336 16.220,340.200 16.000 C 340.064 15.780,339.524 15.600,339.000 15.600 C 338.476 15.600,337.948 15.440,337.827 15.244 C 337.706 15.049,337.021 14.788,336.304 14.666 C 335.587 14.544,334.100 14.241,333.000 13.992 C 327.473 12.742,323.650 12.702,198.600 12.596 C 129.080 12.536,71.930 12.560,71.600 12.649 M332.311 70.060 L 332.422 75.519 328.327 79.460 C 326.074 81.627,322.536 85.020,320.463 87.000 C 318.391 88.980,315.665 91.590,314.406 92.800 C 309.474 97.541,303.839 102.928,295.996 110.400 C 291.493 114.690,286.488 119.459,284.874 120.998 C 282.168 123.576,281.960 123.890,282.217 124.998 C 282.752 127.305,282.868 135.266,282.385 136.556 C 280.248 142.264,276.602 146.383,271.627 148.710 L 268.600 150.126 261.348 150.363 L 254.096 150.600 251.948 152.564 C 250.767 153.645,249.424 154.905,248.964 155.364 C 247.967 156.361,232.910 170.820,230.552 173.045 C 229.646 173.900,226.091 177.283,222.652 180.562 L 216.400 186.524 216.400 226.534 C 216.400 255.350,216.273 266.943,215.945 267.972 C 215.353 269.828,214.810 271.206,214.280 272.200 C 214.045 272.640,213.598 273.504,213.287 274.120 C 211.675 277.311,206.319 281.006,201.354 282.353 C 193.110 284.590,182.964 279.449,179.339 271.200 C 179.097 270.650,178.653 269.660,178.352 269.000 C 177.916 268.043,177.779 263.368,177.678 245.900 C 177.608 233.855,177.440 224.000,177.304 224.000 C 177.168 224.000,176.498 224.585,175.816 225.300 C 174.471 226.709,169.532 231.458,158.035 242.400 C 149.640 250.390,147.316 252.617,142.000 257.767 C 139.910 259.792,134.060 265.381,129.000 270.187 C 123.940 274.993,115.753 282.812,110.806 287.563 C 105.860 292.313,99.560 298.356,96.806 300.991 C 94.053 303.626,90.000 307.510,87.800 309.624 C 85.600 311.737,82.723 314.441,81.407 315.633 C 78.832 317.964,78.033 318.827,78.013 319.300 C 77.996 319.692,307.492 319.692,307.667 319.300 C 307.740 319.135,309.329 317.650,311.198 316.000 C 313.066 314.350,314.973 312.640,315.434 312.200 C 315.895 311.760,317.876 309.948,319.836 308.174 C 321.796 306.399,325.530 303.014,328.132 300.650 C 335.131 294.296,334.829 293.174,332.800 318.000 C 332.575 320.750,332.393 324.474,332.395 326.276 C 332.398 328.463,332.234 329.660,331.900 329.876 C 330.660 330.679,62.902 330.375,62.174 329.571 C 61.582 328.917,61.517 328.141,61.687 323.736 L 61.883 318.654 65.441 315.266 C 67.399 313.402,72.960 308.075,77.800 303.428 C 82.640 298.781,87.744 293.904,89.142 292.590 C 90.541 291.275,92.989 288.940,94.583 287.400 C 98.153 283.952,111.543 271.131,114.000 268.809 C 114.990 267.874,117.782 265.194,120.205 262.854 C 122.627 260.514,128.101 255.270,132.368 251.200 C 141.824 242.181,142.009 242.004,151.646 232.775 C 155.911 228.692,161.001 223.832,162.958 221.975 C 167.373 217.787,169.298 215.946,173.940 211.476 L 177.600 207.952 177.600 179.385 L 177.600 150.818 153.300 150.666 C 125.656 150.494,124.228 150.339,120.100 147.058 C 117.900 145.310,115.600 143.003,115.600 142.545 C 115.600 142.245,115.439 142.000,115.242 142.000 C 113.883 142.000,111.239 132.730,111.744 129.736 C 111.886 128.891,112.105 127.570,112.229 126.800 C 113.253 120.448,119.598 113.979,126.600 112.148 C 128.257 111.715,266.216 111.725,268.200 112.158 C 269.080 112.350,270.932 113.046,272.316 113.704 L 274.833 114.899 277.716 112.169 C 279.302 110.667,284.650 105.559,289.600 100.819 C 294.550 96.078,300.206 90.670,302.168 88.800 C 304.130 86.930,308.180 83.018,311.168 80.106 L 316.600 74.813 201.600 74.819 C 111.209 74.824,86.472 74.931,86.000 75.317 C 85.670 75.588,84.511 76.797,83.424 78.005 C 69.199 93.808,62.961 100.109,62.415 99.225 C 62.040 98.617,61.486 66.793,61.827 65.434 L 62.087 64.399 197.144 64.499 L 332.200 64.600 332.311 70.060 M216.900 150.640 C 216.519 150.813,216.400 153.253,216.400 160.862 C 216.400 169.216,216.488 170.770,216.936 170.329 C 217.609 169.666,231.323 156.535,234.730 153.292 C 236.121 151.968,237.111 150.814,236.930 150.730 C 236.392 150.478,217.445 150.394,216.900 150.640 " stroke="none" fill="#040404" fill-rule="evenodd"></path><path id="path3" d="M30.800 30.200 C 29.828 31.190,29.123 32.000,29.233 32.000 C 29.343 32.000,30.228 31.190,31.200 30.200 C 32.172 29.210,32.877 28.400,32.767 28.400 C 32.657 28.400,31.772 29.210,30.800 30.200 M61.827 65.434 C 61.486 66.793,62.040 98.617,62.415 99.225 C 62.961 100.109,69.199 93.808,83.424 78.005 C 84.511 76.797,85.670 75.588,86.000 75.317 C 86.472 74.931,111.209 74.824,201.600 74.819 L 316.600 74.813 311.168 80.106 C 308.180 83.018,304.130 86.930,302.168 88.800 C 300.206 90.670,294.550 96.083,289.600 100.828 C 284.650 105.574,279.199 110.763,277.487 112.360 C 275.775 113.957,274.638 115.204,274.960 115.132 C 275.282 115.059,277.313 113.307,279.473 111.237 C 281.633 109.168,285.110 105.835,287.200 103.830 C 289.290 101.826,294.960 96.410,299.800 91.795 C 312.838 79.363,317.200 75.083,317.200 74.723 C 317.200 74.545,265.209 74.400,201.665 74.400 L 86.130 74.400 84.381 76.300 C 82.552 78.286,74.634 86.793,67.800 94.114 C 65.600 96.471,63.603 98.399,63.362 98.400 C 62.770 98.400,62.403 89.806,62.401 75.899 L 62.400 64.799 197.100 64.899 L 331.800 65.000 331.912 69.913 C 332.049 75.894,333.329 74.019,321.200 85.607 C 289.110 116.266,282.222 122.912,282.045 123.386 C 281.960 123.614,283.222 122.540,284.850 121.000 C 291.142 115.046,307.253 99.675,314.406 92.800 C 315.665 91.590,318.391 88.980,320.463 87.000 C 322.536 85.020,326.074 81.627,328.327 79.460 L 332.422 75.519 332.311 70.060 L 332.200 64.600 197.144 64.499 L 62.087 64.399 61.827 65.434 M381.398 196.800 C 381.398 266.650,381.444 295.225,381.500 260.300 C 381.556 225.375,381.556 168.225,381.500 133.300 C 381.444 98.375,381.398 126.950,381.398 196.800 M111.724 131.000 C 111.726 132.320,111.801 132.812,111.890 132.093 C 111.979 131.374,111.977 130.294,111.886 129.693 C 111.795 129.092,111.722 129.680,111.724 131.000 M117.183 144.500 C 118.841 146.266,119.200 146.584,119.200 146.283 C 119.200 146.219,118.345 145.364,117.300 144.383 L 115.400 142.600 117.183 144.500 M141.529 150.700 C 148.199 150.761,158.999 150.761,165.529 150.700 C 172.058 150.638,166.600 150.588,153.400 150.588 C 140.200 150.588,134.858 150.638,141.529 150.700 M233.705 150.687 C 234.314 150.779,235.214 150.777,235.705 150.682 C 236.197 150.587,235.700 150.511,234.600 150.514 C 233.500 150.517,233.097 150.595,233.705 150.687 M236.900 150.747 C 236.955 150.937,235.992 152.062,234.759 153.247 C 233.526 154.431,229.133 158.640,224.995 162.600 C 215.898 171.307,216.400 170.814,216.400 171.048 C 216.400 171.561,218.193 169.938,226.454 161.948 C 231.374 157.189,235.985 152.808,236.701 152.211 C 237.417 151.615,237.901 150.963,237.777 150.764 C 237.491 150.300,236.767 150.286,236.900 150.747 M250.454 153.311 C 239.793 163.474,228.056 174.696,224.800 177.837 C 222.710 179.854,219.920 182.501,218.600 183.719 C 217.280 184.937,216.293 186.027,216.407 186.140 C 216.521 186.254,218.521 184.514,220.851 182.274 C 223.182 180.033,226.689 176.691,228.645 174.846 C 230.600 173.001,235.772 168.051,240.138 163.846 C 251.961 152.457,253.326 151.192,254.200 150.805 C 254.941 150.477,254.945 150.449,254.254 150.425 C 253.844 150.411,252.134 151.710,250.454 153.311 M177.790 179.200 C 177.790 194.930,177.839 201.365,177.900 193.500 C 177.960 185.635,177.960 172.765,177.900 164.900 C 177.839 157.035,177.790 163.470,177.790 179.200 M176.166 209.315 C 175.927 209.582,172.801 212.590,169.217 216.000 C 165.634 219.410,162.044 222.830,161.239 223.600 C 160.434 224.370,156.201 228.420,151.834 232.600 C 141.635 242.360,141.542 242.449,132.368 251.200 C 128.101 255.270,122.627 260.514,120.205 262.854 C 117.782 265.194,114.990 267.874,114.000 268.809 C 111.543 271.131,98.153 283.952,94.583 287.400 C 92.989 288.940,90.541 291.275,89.142 292.590 C 87.744 293.904,82.640 298.781,77.800 303.428 C 72.960 308.075,67.399 313.402,65.441 315.266 L 61.883 318.654 61.687 323.736 C 61.517 328.141,61.582 328.917,62.174 329.571 C 62.902 330.375,330.660 330.679,331.900 329.876 C 332.234 329.660,332.398 328.463,332.395 326.276 C 332.393 324.474,332.575 320.750,332.800 318.000 C 334.829 293.174,335.131 294.296,328.132 300.650 C 325.530 303.014,321.796 306.399,319.836 308.174 C 317.876 309.948,315.895 311.760,315.434 312.200 C 314.973 312.640,313.066 314.350,311.198 316.000 C 309.329 317.650,307.740 319.135,307.667 319.300 C 307.593 319.465,255.888 319.600,192.767 319.600 C 129.645 319.600,78.006 319.465,78.013 319.300 C 78.033 318.827,78.832 317.964,81.407 315.633 C 82.723 314.441,85.600 311.737,87.800 309.624 C 90.000 307.510,94.053 303.626,96.806 300.991 C 99.560 298.356,105.860 292.313,110.806 287.563 C 115.753 282.812,123.940 274.993,129.000 270.187 C 134.060 265.381,139.910 259.792,142.000 257.767 C 147.316 252.617,149.640 250.390,158.035 242.400 C 169.532 231.458,174.471 226.709,175.816 225.300 C 176.498 224.585,177.177 224.000,177.325 224.000 C 177.472 224.000,177.642 233.225,177.702 244.500 L 177.811 265.000 177.805 244.400 C 177.801 228.917,177.684 223.800,177.331 223.800 C 176.706 223.800,174.574 225.769,160.000 239.810 C 157.690 242.035,151.480 247.972,146.200 253.002 C 140.920 258.032,134.620 264.064,132.200 266.405 C 129.780 268.746,125.823 272.537,123.407 274.831 C 120.990 277.124,116.668 281.250,113.802 284.000 C 110.936 286.750,106.610 290.890,104.189 293.200 C 101.768 295.510,96.010 301.012,91.394 305.427 C 86.777 309.841,81.612 314.775,79.916 316.391 C 78.221 318.007,76.926 319.481,77.040 319.665 C 77.154 319.849,129.077 320.000,192.424 320.000 L 307.600 320.000 316.500 311.941 C 321.395 307.509,326.997 302.424,328.949 300.641 C 334.367 295.692,333.931 294.396,332.761 312.000 C 332.535 315.410,332.226 320.720,332.075 323.800 L 331.800 329.400 197.200 329.400 L 62.600 329.400 62.600 324.072 L 62.600 318.744 66.404 315.072 C 68.496 313.052,74.076 307.710,78.803 303.200 C 83.530 298.690,89.468 293.009,91.999 290.575 C 94.529 288.142,98.576 284.272,100.991 281.975 C 103.405 279.679,107.725 275.545,110.591 272.789 C 116.383 267.218,120.077 263.682,134.400 249.994 C 139.790 244.843,148.160 236.830,153.000 232.188 C 157.840 227.546,165.265 220.445,169.500 216.409 C 173.735 212.373,177.200 209.010,177.200 208.935 C 177.200 208.631,176.572 208.862,176.166 209.315 M390.000 343.756 C 390.000 343.842,390.626 344.607,391.391 345.456 C 392.156 346.305,392.786 347.143,392.791 347.317 C 392.796 347.491,393.160 348.020,393.600 348.492 C 394.040 348.964,394.400 349.587,394.400 349.875 C 394.400 350.164,394.580 350.400,394.800 350.400 C 395.020 350.400,395.200 350.760,395.200 351.200 C 395.200 351.640,395.367 352.000,395.572 352.000 C 395.777 352.000,396.002 352.391,396.072 352.869 C 396.221 353.880,397.200 354.370,397.200 353.433 C 397.200 353.085,397.001 352.800,396.757 352.800 C 396.514 352.800,396.421 352.523,396.550 352.185 C 396.685 351.835,396.531 351.472,396.193 351.342 C 395.867 351.217,395.600 350.684,395.600 350.157 C 395.600 349.631,395.420 349.200,395.200 349.200 C 394.980 349.200,394.797 348.795,394.794 348.300 C 394.789 347.572,394.714 347.515,394.400 348.000 C 394.088 348.483,394.011 348.419,394.006 347.676 C 394.003 347.164,393.822 346.863,393.600 347.000 C 393.380 347.136,393.200 346.967,393.200 346.624 C 393.200 346.281,393.020 346.000,392.800 346.000 C 392.580 346.000,392.400 345.705,392.400 345.344 C 392.400 344.632,391.304 343.633,390.500 343.613 C 390.225 343.606,390.000 343.670,390.000 343.756 M396.892 354.875 C 397.139 355.617,398.000 355.740,398.000 355.033 C 398.000 354.685,397.715 354.400,397.367 354.400 C 397.018 354.400,396.805 354.614,396.892 354.875 M397.668 357.008 C 397.740 357.630,398.025 358.212,398.300 358.302 C 399.013 358.537,398.919 357.262,398.168 356.510 C 397.591 355.934,397.547 355.978,397.668 357.008 M398.400 359.948 C 398.400 360.874,399.024 361.409,399.398 360.803 C 399.537 360.578,399.370 360.112,399.026 359.768 C 398.458 359.201,398.400 359.218,398.400 359.948 M399.344 363.801 C 399.218 364.131,399.292 365.256,399.510 366.301 L 399.905 368.200 399.953 365.700 C 399.999 363.241,399.799 362.616,399.344 363.801 M399.489 372.131 C 399.370 372.863,399.418 374.078,399.595 374.831 C 399.868 375.989,399.924 375.784,399.959 373.500 C 400.004 370.559,399.827 370.045,399.489 372.131 M398.667 377.867 C 398.179 378.354,398.391 379.200,399.000 379.200 C 399.333 379.200,399.600 378.844,399.600 378.400 C 399.600 377.603,399.174 377.360,398.667 377.867 M397.867 380.667 C 397.363 381.170,397.600 382.400,398.200 382.400 C 398.573 382.400,398.800 382.022,398.800 381.400 C 398.800 380.429,398.411 380.123,397.867 380.667 M396.629 384.461 C 395.845 386.033,395.840 386.400,396.600 386.400 C 397.000 386.400,397.200 386.000,397.200 385.200 C 397.200 384.540,397.380 384.000,397.600 384.000 C 397.820 384.000,398.000 383.820,398.000 383.600 C 398.000 382.768,397.234 383.249,396.629 384.461 M322.800 384.925 C 322.800 384.994,323.385 385.579,324.100 386.225 L 325.400 387.400 324.225 386.100 C 323.130 384.888,322.800 384.616,322.800 384.925 M394.800 388.200 C 394.498 388.970,394.104 389.600,393.925 389.600 C 393.746 389.600,393.600 389.780,393.600 390.000 C 393.600 390.220,393.870 390.400,394.200 390.400 C 394.533 390.400,394.800 390.044,394.800 389.600 C 394.800 389.160,394.980 388.800,395.200 388.800 C 395.420 388.800,395.600 388.455,395.600 388.033 C 395.600 387.612,395.825 387.176,396.100 387.065 C 396.430 386.932,396.387 386.852,395.975 386.832 C 395.616 386.813,395.115 387.397,394.800 388.200 M392.637 391.800 C 391.882 392.952,392.696 393.290,393.600 392.200 C 394.001 391.716,393.992 391.599,393.549 391.594 C 393.118 391.589,393.129 391.505,393.600 391.200 C 393.930 390.987,393.996 390.809,393.746 390.806 C 393.496 390.803,392.997 391.250,392.637 391.800 M329.485 393.722 C 329.279 394.258,334.176 399.600,334.874 399.600 C 335.088 399.600,335.976 400.320,336.847 401.200 C 337.718 402.080,338.694 402.800,339.015 402.800 C 339.337 402.800,339.600 402.980,339.600 403.200 C 339.600 403.420,339.960 403.600,340.400 403.600 C 340.840 403.600,341.200 403.780,341.200 404.000 C 341.200 404.220,341.590 404.400,342.067 404.400 C 342.543 404.400,342.810 404.523,342.660 404.673 C 342.311 405.022,345.266 406.406,345.737 406.115 C 345.931 405.995,346.242 406.144,346.428 406.445 C 346.693 406.874,346.872 406.888,347.250 406.510 C 347.628 406.132,347.566 405.972,346.967 405.777 C 346.545 405.640,345.795 405.334,345.301 405.096 C 344.806 404.859,344.284 404.783,344.140 404.927 C 343.997 405.070,343.681 404.935,343.440 404.626 C 342.958 404.010,340.038 402.230,338.300 401.492 C 337.695 401.235,337.200 400.794,337.200 400.512 C 337.200 400.231,337.016 400.000,336.790 400.000 C 336.565 400.000,334.875 398.470,333.033 396.599 C 330.929 394.461,329.612 393.393,329.485 393.722 M388.468 396.609 C 386.635 398.474,385.015 400.000,384.868 400.001 C 384.478 400.002,382.000 402.172,382.000 402.512 C 382.000 402.670,382.191 402.800,382.424 402.800 C 382.657 402.800,382.717 402.589,382.558 402.332 C 382.362 402.015,382.489 401.948,382.950 402.125 C 383.371 402.287,383.717 402.161,383.858 401.793 C 383.983 401.467,384.270 401.200,384.496 401.200 C 384.722 401.200,385.242 400.812,385.653 400.339 C 386.064 399.865,386.400 399.613,386.400 399.779 C 386.400 399.945,387.570 398.950,389.000 397.570 C 390.430 396.189,391.600 394.720,391.600 394.306 C 391.600 393.839,391.775 393.661,392.062 393.838 C 392.348 394.015,392.415 393.948,392.238 393.662 C 391.866 393.060,392.248 392.761,388.468 396.609 M380.800 402.800 C 380.800 403.020,380.440 403.200,380.000 403.200 C 379.560 403.200,379.200 403.336,379.200 403.502 C 379.200 403.669,378.615 404.047,377.900 404.343 C 374.059 405.932,372.893 406.800,374.600 406.800 C 374.930 406.800,375.200 406.620,375.200 406.400 C 375.200 406.180,375.560 406.000,376.000 406.000 C 376.440 406.000,376.800 405.820,376.800 405.600 C 376.800 405.380,377.160 405.200,377.600 405.200 C 378.040 405.200,378.400 405.020,378.400 404.800 C 378.400 404.580,378.760 404.400,379.200 404.400 C 379.640 404.400,380.000 404.220,380.000 404.000 C 380.000 403.780,380.360 403.600,380.800 403.600 C 381.244 403.600,381.600 403.333,381.600 403.000 C 381.600 402.670,381.420 402.400,381.200 402.400 C 380.980 402.400,380.800 402.580,380.800 402.800 M348.507 406.964 C 349.264 407.721,350.135 407.806,349.902 407.100 C 349.811 406.825,349.317 406.539,348.804 406.464 C 347.950 406.339,347.925 406.382,348.507 406.964 M371.467 406.667 C 370.969 407.165,371.197 407.600,371.957 407.600 C 372.374 407.600,372.818 407.330,372.945 407.000 C 373.180 406.387,372.010 406.124,371.467 406.667 M351.200 407.800 C 351.200 408.251,351.481 408.416,352.100 408.328 C 352.595 408.258,353.000 408.020,353.000 407.800 C 353.000 407.580,352.595 407.342,352.100 407.272 C 351.481 407.184,351.200 407.349,351.200 407.800 M368.680 407.453 C 368.118 408.015,368.424 408.400,369.433 408.400 C 370.082 408.400,370.405 408.214,370.300 407.900 C 370.108 407.322,369.092 407.041,368.680 407.453 M358.500 408.696 C 359.765 408.775,361.835 408.775,363.100 408.696 C 364.365 408.616,363.330 408.551,360.800 408.551 C 358.270 408.551,357.235 408.616,358.500 408.696 " stroke="none" fill="#505050" fill-rule="evenodd"></path><path id="path4" d="M65.200 12.640 C 57.101 14.067,53.351 15.215,47.594 18.032 C 34.324 24.524,25.125 33.491,18.697 46.200 C 15.347 52.823,14.059 56.934,12.426 66.224 C 11.834 69.590,11.827 324.085,12.418 327.433 C 15.738 346.224,22.365 357.627,36.747 369.300 C 43.575 374.842,55.692 379.806,65.729 381.174 C 67.888 381.468,107.703 381.600,194.190 381.600 L 319.522 381.600 324.380 387.408 C 327.051 390.603,329.140 393.374,329.021 393.566 C 328.902 393.759,329.064 394.016,329.382 394.138 C 330.682 394.637,328.531 391.377,324.495 386.732 C 323.453 385.532,321.992 383.797,321.248 382.876 L 319.896 381.200 194.648 381.187 C 61.782 381.174,66.779 381.240,59.200 379.402 C 56.132 378.658,52.470 377.436,50.104 376.367 C 49.172 375.945,48.344 375.600,48.264 375.600 C 47.640 375.600,40.002 371.070,37.600 369.275 C 23.488 358.729,15.030 343.840,12.810 325.636 C 12.245 320.999,12.242 72.633,12.807 67.964 C 13.989 58.207,16.379 50.910,21.036 42.846 C 28.948 29.143,43.813 17.974,58.800 14.470 C 59.790 14.239,61.050 13.939,61.600 13.805 C 67.271 12.419,68.403 12.407,197.200 12.407 C 333.036 12.407,326.248 12.306,335.600 14.460 C 336.590 14.688,337.760 15.028,338.200 15.217 C 338.640 15.405,339.900 15.852,341.000 16.209 C 342.100 16.566,343.630 17.136,344.400 17.475 C 346.902 18.579,349.395 19.795,349.600 20.012 C 349.710 20.129,351.150 21.022,352.800 21.996 C 366.832 30.281,376.539 44.615,380.840 63.400 C 381.580 66.633,381.899 318.131,381.173 325.800 C 380.923 328.440,380.692 331.010,380.659 331.512 C 380.589 332.589,389.443 343.548,390.400 343.569 C 390.820 343.578,390.735 343.375,390.120 342.891 C 389.636 342.511,388.736 341.537,388.120 340.726 C 387.504 339.915,385.684 337.707,384.075 335.819 C 382.466 333.932,381.149 332.075,381.149 331.693 C 381.149 331.312,381.419 328.480,381.749 325.400 C 382.657 316.940,382.695 77.526,381.790 68.800 C 379.403 45.793,367.164 27.927,347.234 18.354 C 343.608 16.612,343.037 16.368,340.800 15.600 C 340.030 15.336,339.040 14.974,338.600 14.797 C 338.160 14.619,336.990 14.289,336.000 14.062 C 335.010 13.835,333.750 13.543,333.200 13.412 C 327.204 11.990,329.480 12.012,196.800 12.063 C 92.172 12.102,67.641 12.210,65.200 12.640 M321.978 84.700 L 320.600 86.200 322.100 84.822 C 323.496 83.538,323.784 83.200,323.478 83.200 C 323.412 83.200,322.737 83.875,321.978 84.700 M62.534 88.000 C 62.534 89.650,62.605 90.325,62.691 89.500 C 62.778 88.675,62.778 87.325,62.691 86.500 C 62.605 85.675,62.534 86.350,62.534 88.000 M70.575 90.900 L 69.400 92.200 70.700 91.025 C 71.912 89.930,72.184 89.600,71.875 89.600 C 71.806 89.600,71.221 90.185,70.575 90.900 M312.778 93.500 L 311.400 95.000 312.900 93.622 C 314.296 92.338,314.584 92.000,314.278 92.000 C 314.212 92.000,313.537 92.675,312.778 93.500 M288.800 102.200 C 287.828 103.190,287.123 104.000,287.233 104.000 C 287.343 104.000,288.228 103.190,289.200 102.200 C 290.172 101.210,290.877 100.400,290.767 100.400 C 290.657 100.400,289.772 101.210,288.800 102.200 M294.581 110.900 L 293.000 112.600 294.700 111.019 C 296.281 109.548,296.584 109.200,296.281 109.200 C 296.216 109.200,295.451 109.965,294.581 110.900 M128.600 112.000 C 128.160 112.189,127.294 112.356,126.675 112.372 C 124.587 112.424,120.476 114.785,117.653 117.553 C 108.081 126.937,110.850 142.497,123.164 148.520 L 126.600 150.200 151.400 150.301 C 165.040 150.357,176.607 150.496,177.105 150.610 L 178.010 150.818 177.905 179.309 C 177.847 194.979,177.641 208.160,177.446 208.600 L 177.092 209.400 177.733 208.600 C 178.425 207.737,178.765 151.593,178.085 150.525 C 177.859 150.168,171.452 150.018,152.392 149.923 C 131.954 149.821,126.766 149.689,125.800 149.248 C 125.140 148.947,124.150 148.503,123.600 148.262 C 119.978 146.676,116.360 143.299,114.506 139.774 C 110.218 131.619,112.865 120.833,120.400 115.759 C 126.276 111.802,121.611 112.030,196.923 112.014 C 269.722 111.998,268.386 111.948,273.101 114.862 C 273.816 115.304,274.603 115.599,274.848 115.517 C 275.695 115.235,270.162 112.764,267.383 112.182 C 264.206 111.518,130.132 111.341,128.600 112.000 M285.200 119.800 C 284.228 120.790,283.523 121.600,283.633 121.600 C 283.743 121.600,284.628 120.790,285.600 119.800 C 286.572 118.810,287.277 118.000,287.167 118.000 C 287.057 118.000,286.172 118.810,285.200 119.800 M281.518 123.663 C 281.372 124.028,281.509 125.288,281.822 126.463 C 284.335 135.906,279.174 145.096,269.081 149.151 C 268.415 149.418,265.260 149.606,261.281 149.614 C 256.616 149.624,254.321 149.783,253.675 150.141 C 252.851 150.599,253.003 150.642,255.075 150.535 C 256.354 150.469,259.830 150.336,262.800 150.240 C 265.887 150.139,268.800 149.836,269.600 149.532 C 275.955 147.117,281.069 141.502,282.422 135.457 C 283.092 132.466,282.272 121.777,281.518 123.663 M216.191 150.080 C 216.078 150.374,216.037 155.201,216.100 160.807 L 216.214 171.000 216.307 160.688 L 216.400 150.376 227.100 150.400 C 239.803 150.429,238.716 150.462,238.096 150.068 C 237.147 149.466,216.422 149.477,216.191 150.080 M234.000 154.600 C 233.028 155.590,232.323 156.400,232.433 156.400 C 232.543 156.400,233.428 155.590,234.400 154.600 C 235.372 153.610,236.077 152.800,235.967 152.800 C 235.857 152.800,234.972 153.610,234.000 154.600 M248.378 155.100 L 247.000 156.600 248.500 155.222 C 249.896 153.938,250.184 153.600,249.878 153.600 C 249.812 153.600,249.137 154.275,248.378 155.100 M239.781 163.300 L 238.200 165.000 239.900 163.419 C 241.481 161.948,241.784 161.600,241.481 161.600 C 241.416 161.600,240.651 162.365,239.781 163.300 M230.181 172.500 L 228.600 174.200 230.300 172.619 C 231.881 171.148,232.184 170.800,231.881 170.800 C 231.816 170.800,231.051 171.565,230.181 172.500 M216.098 225.480 C 215.992 268.559,216.068 267.055,213.749 271.933 C 210.568 278.626,201.275 283.506,194.522 282.031 C 187.905 280.586,183.556 277.533,180.621 272.276 C 178.407 268.309,178.410 268.337,178.398 245.200 C 178.387 221.693,178.416 221.964,176.125 224.246 C 175.267 225.101,175.158 225.269,175.883 224.621 C 177.993 222.734,177.972 222.528,178.090 246.426 L 178.200 268.632 179.699 271.616 C 188.076 288.293,211.953 285.385,215.956 267.200 C 216.322 265.538,216.411 255.309,216.318 225.400 L 216.196 185.800 216.098 225.480 M169.381 216.500 L 167.800 218.200 169.500 216.619 C 171.081 215.148,171.384 214.800,171.081 214.800 C 171.016 214.800,170.251 215.565,169.381 216.500 M160.400 225.000 C 159.428 225.990,158.723 226.800,158.833 226.800 C 158.943 226.800,159.828 225.990,160.800 225.000 C 161.772 224.010,162.477 223.200,162.367 223.200 C 162.257 223.200,161.372 224.010,160.400 225.000 M166.181 233.700 L 164.600 235.400 166.300 233.819 C 167.881 232.348,168.184 232.000,167.881 232.000 C 167.816 232.000,167.051 232.765,166.181 233.700 M141.978 242.700 L 140.600 244.200 142.100 242.822 C 143.496 241.538,143.784 241.200,143.478 241.200 C 143.412 241.200,142.737 241.875,141.978 242.700 M156.378 243.100 L 155.000 244.600 156.500 243.222 C 157.896 241.938,158.184 241.600,157.878 241.600 C 157.812 241.600,157.137 242.275,156.378 243.100 M122.981 260.900 L 121.400 262.600 123.100 261.019 C 124.681 259.548,124.984 259.200,124.681 259.200 C 124.616 259.200,123.851 259.965,122.981 260.900 M114.185 269.300 L 112.200 271.400 114.300 269.415 C 115.455 268.323,116.400 267.378,116.400 267.315 C 116.400 267.017,116.029 267.349,114.185 269.300 M128.800 269.400 C 127.828 270.390,127.123 271.200,127.233 271.200 C 127.343 271.200,128.228 270.390,129.200 269.400 C 130.172 268.410,130.877 267.600,130.767 267.600 C 130.657 267.600,129.772 268.410,128.800 269.400 M120.181 277.700 L 118.600 279.400 120.300 277.819 C 121.881 276.348,122.184 276.000,121.881 276.000 C 121.816 276.000,121.051 276.765,120.181 277.700 M104.175 278.900 L 103.000 280.200 104.300 279.025 C 105.512 277.930,105.784 277.600,105.475 277.600 C 105.406 277.600,104.821 278.185,104.175 278.900 M102.181 294.900 L 100.600 296.600 102.300 295.019 C 103.881 293.548,104.184 293.200,103.881 293.200 C 103.816 293.200,103.051 293.965,102.181 294.900 M85.385 296.900 L 83.400 299.000 85.500 297.015 C 86.655 295.923,87.600 294.978,87.600 294.915 C 87.600 294.617,87.229 294.949,85.385 296.900 M77.775 304.100 L 76.600 305.400 77.900 304.225 C 79.112 303.130,79.384 302.800,79.075 302.800 C 79.006 302.800,78.421 303.385,77.775 304.100 M67.775 313.700 L 66.600 315.000 67.900 313.825 C 69.112 312.730,69.384 312.400,69.075 312.400 C 69.006 312.400,68.421 312.985,67.775 313.700 M332.493 315.200 C 332.493 315.970,332.575 316.285,332.676 315.900 C 332.776 315.515,332.776 314.885,332.676 314.500 C 332.575 314.115,332.493 314.430,332.493 315.200 " stroke="none" fill="#136561" fill-rule="evenodd"></path></g></svg>