<?xml version="1.0" standalone="no"?>
<!DOCTYPE svg PUBLIC "-//W3C//DTD SVG 20010904//EN"
 "http://www.w3.org/TR/2001/REC-SVG-20010904/DTD/svg10.dtd">
<svg version="1.0" xmlns="http://www.w3.org/2000/svg"
 width="1096.000000pt" height="1280.000000pt" viewBox="0 0 1096.000000 1280.000000"
 preserveAspectRatio="xMidYMid meet">
<metadata>
Created by potrace 1.15, written by Peter Selinger 2001-2017
</metadata>
<g transform="translate(0.000000,1280.000000) scale(0.100000,-0.100000)"
fill="#000000" stroke="none">
<path d="M3356 12789 c-452 -58 -851 -372 -1016 -799 -72 -188 -100 -457 -66
-654 44 -256 156 -482 331 -665 220 -231 503 -366 815 -389 636 -47 1200 374
1335 998 22 104 30 318 16 421 -26 181 -97 373 -192 519 -267 410 -742 630
-1223 569z"/>
<path d="M9975 11674 c-473 -497 -882 -927 -909 -956 -27 -29 -43 -43 -35 -31
8 12 324 397 702 855 l689 833 -34 28 c-58 50 -98 80 -102 76 -2 -2 -576 -699
-1276 -1549 -700 -850 -1281 -1554 -1291 -1564 -17 -19 -19 -19 -86 11 -153
68 -296 65 -443 -8 -95 -48 -146 -100 -421 -429 -117 -140 -287 -344 -378
-453 l-166 -199 -18 64 c-26 91 -58 199 -67 228 -4 14 -12 43 -18 65 -67 252
-167 490 -267 640 -262 389 -628 649 -1064 755 -209 51 -237 52 -1341 48
-1004 -4 -1027 -4 -1115 -25 -193 -46 -408 -138 -569 -243 -291 -190 -545
-474 -677 -755 -40 -87 -63 -161 -209 -700 -18 -66 -49 -181 -70 -255 -21 -74
-52 -189 -70 -255 -18 -66 -49 -181 -70 -255 -21 -74 -52 -189 -70 -255 -59
-216 -92 -338 -130 -475 -21 -74 -52 -189 -70 -255 -18 -66 -45 -165 -61 -220
-15 -55 -39 -143 -53 -195 -14 -52 -37 -135 -51 -185 -13 -49 -25 -96 -25
-102 0 -10 117 -13 555 -13 l555 0 6 28 c3 15 23 88 44 162 20 74 52 189 70
255 17 66 36 131 40 145 4 14 23 79 40 145 18 66 49 181 70 255 21 74 57 205
80 290 23 85 59 216 80 290 21 74 57 205 80 290 23 85 51 184 61 220 10 36 27
101 39 145 12 44 30 110 41 148 l20 67 133 0 134 0 -28 -102 c-67 -250 -82
-307 -101 -375 -47 -178 -61 -232 -89 -333 -29 -108 -46 -169 -95 -355 -15
-55 -35 -129 -45 -165 -38 -143 -72 -269 -90 -335 -18 -68 -55 -205 -90 -335
-21 -75 -74 -274 -100 -372 l-18 -68 1965 0 1964 0 -6 21 c-7 20 -257 890
-275 954 -5 17 -77 266 -160 555 -83 289 -155 539 -160 555 -5 17 -29 101 -54
187 -25 86 -46 160 -46 163 0 3 63 5 139 5 l140 0 51 -162 c28 -90 55 -174 60
-188 5 -14 17 -54 28 -90 31 -103 122 -392 132 -420 5 -14 27 -86 50 -160 77
-251 132 -365 225 -468 170 -188 405 -215 619 -72 41 28 97 75 124 105 28 30
241 285 475 567 233 282 540 653 682 823 141 171 275 336 296 369 53 80 80
157 86 246 7 92 -9 170 -49 250 l-30 61 24 27 c14 15 702 738 1529 1608 827
869 1514 1591 1526 1605 l22 25 -62 55 -62 55 -860 -902z"/>
<path d="M0 5490 l0 -290 3405 0 3405 0 0 290 0 290 -3405 0 -3405 0 0 -290z"/>
<path d="M410 2565 l0 -2565 3030 0 3030 0 0 2565 0 2565 -3030 0 -3030 0 0
-2565z"/>
</g>
</svg>
